<mxfile host="app.diagrams.net" modified="2023-11-27T13:29:10.512Z" agent="Mozilla/5.0 (Windows NT 10.0; Win64; x64) AppleWebKit/537.36 (KHTML, like Gecko) Chrome/119.0.0.0 Safari/537.36" etag="3opRp3Wii5O4nuUQtXCi" version="22.1.4" type="device">
  <diagram name="Page-1" id="HFmszyePSASL9za-hxsz">
    <mxGraphModel dx="1395" dy="640" grid="1" gridSize="10" guides="1" tooltips="1" connect="1" arrows="1" fold="1" page="1" pageScale="1" pageWidth="850" pageHeight="1100" math="0" shadow="0">
      <root>
        <mxCell id="0" />
        <mxCell id="1" parent="0" />
        <mxCell id="CRPxXDfZVk1PPz2hXP0v-1" value="" style="rounded=0;whiteSpace=wrap;html=1;" vertex="1" parent="1">
          <mxGeometry x="549" y="160" width="439" height="400" as="geometry" />
        </mxCell>
        <mxCell id="CRPxXDfZVk1PPz2hXP0v-21" value="" style="rounded=0;whiteSpace=wrap;html=1;" vertex="1" parent="1">
          <mxGeometry x="870" y="311" width="100" height="130" as="geometry" />
        </mxCell>
        <mxCell id="CRPxXDfZVk1PPz2hXP0v-9" value="" style="rounded=0;whiteSpace=wrap;html=1;" vertex="1" parent="1">
          <mxGeometry x="190" y="160" width="349" height="400" as="geometry" />
        </mxCell>
        <mxCell id="CRPxXDfZVk1PPz2hXP0v-19" value="" style="rounded=0;whiteSpace=wrap;html=1;" vertex="1" parent="1">
          <mxGeometry x="210" y="250" width="190" height="240" as="geometry" />
        </mxCell>
        <mxCell id="CRPxXDfZVk1PPz2hXP0v-2" value="Copel" style="text;html=1;strokeColor=none;fillColor=none;align=center;verticalAlign=middle;whiteSpace=wrap;rounded=0;" vertex="1" parent="1">
          <mxGeometry x="928" y="160" width="60" height="30" as="geometry" />
        </mxCell>
        <mxCell id="CRPxXDfZVk1PPz2hXP0v-6" value="Amon" style="shape=cylinder3;whiteSpace=wrap;html=1;boundedLbl=1;backgroundOutline=1;size=15;" vertex="1" parent="1">
          <mxGeometry x="890" y="339" width="60" height="80" as="geometry" />
        </mxCell>
        <mxCell id="CRPxXDfZVk1PPz2hXP0v-12" value="Third Party Software" style="text;html=1;strokeColor=none;fillColor=none;align=center;verticalAlign=middle;whiteSpace=wrap;rounded=0;" vertex="1" parent="1">
          <mxGeometry x="389" y="160" width="160" height="30" as="geometry" />
        </mxCell>
        <mxCell id="CRPxXDfZVk1PPz2hXP0v-11" value="" style="rounded=0;whiteSpace=wrap;html=1;" vertex="1" parent="1">
          <mxGeometry x="240" y="300" width="130" height="160" as="geometry" />
        </mxCell>
        <mxCell id="CRPxXDfZVk1PPz2hXP0v-10" value="API" style="ellipse;whiteSpace=wrap;html=1;aspect=fixed;" vertex="1" parent="1">
          <mxGeometry x="266" y="342" width="80" height="80" as="geometry" />
        </mxCell>
        <mxCell id="CRPxXDfZVk1PPz2hXP0v-13" value="CLH -Castlight" style="text;html=1;strokeColor=none;fillColor=none;align=center;verticalAlign=middle;whiteSpace=wrap;rounded=0;" vertex="1" parent="1">
          <mxGeometry x="270" y="300" width="100" height="30" as="geometry" />
        </mxCell>
        <mxCell id="CRPxXDfZVk1PPz2hXP0v-20" value="Cloud" style="text;html=1;strokeColor=none;fillColor=none;align=center;verticalAlign=middle;whiteSpace=wrap;rounded=0;" vertex="1" parent="1">
          <mxGeometry x="340" y="250" width="60" height="30" as="geometry" />
        </mxCell>
        <mxCell id="CRPxXDfZVk1PPz2hXP0v-22" value="Oracle" style="text;html=1;strokeColor=none;fillColor=none;align=center;verticalAlign=middle;whiteSpace=wrap;rounded=0;" vertex="1" parent="1">
          <mxGeometry x="910" y="309" width="60" height="30" as="geometry" />
        </mxCell>
        <mxCell id="CRPxXDfZVk1PPz2hXP0v-27" value="" style="group" vertex="1" connectable="0" parent="1">
          <mxGeometry x="574" y="210" width="201" height="310" as="geometry" />
        </mxCell>
        <mxCell id="CRPxXDfZVk1PPz2hXP0v-23" value="" style="rounded=0;whiteSpace=wrap;html=1;" vertex="1" parent="CRPxXDfZVk1PPz2hXP0v-27">
          <mxGeometry width="201" height="310" as="geometry" />
        </mxCell>
        <mxCell id="CRPxXDfZVk1PPz2hXP0v-24" value="Openshift" style="text;html=1;strokeColor=none;fillColor=none;align=center;verticalAlign=middle;whiteSpace=wrap;rounded=0;" vertex="1" parent="CRPxXDfZVk1PPz2hXP0v-27">
          <mxGeometry x="141" width="60" height="30" as="geometry" />
        </mxCell>
        <mxCell id="CRPxXDfZVk1PPz2hXP0v-26" value="" style="group" vertex="1" connectable="0" parent="CRPxXDfZVk1PPz2hXP0v-27">
          <mxGeometry x="32" y="50" width="150" height="210" as="geometry" />
        </mxCell>
        <mxCell id="CRPxXDfZVk1PPz2hXP0v-3" value="" style="rounded=0;whiteSpace=wrap;html=1;" vertex="1" parent="CRPxXDfZVk1PPz2hXP0v-26">
          <mxGeometry width="135" height="210" as="geometry" />
        </mxCell>
        <mxCell id="CRPxXDfZVk1PPz2hXP0v-17" value="" style="rounded=0;whiteSpace=wrap;html=1;" vertex="1" parent="CRPxXDfZVk1PPz2hXP0v-26">
          <mxGeometry x="17" y="47" width="100" height="133" as="geometry" />
        </mxCell>
        <mxCell id="CRPxXDfZVk1PPz2hXP0v-4" value="ICL" style="text;html=1;strokeColor=none;fillColor=none;align=center;verticalAlign=middle;whiteSpace=wrap;rounded=0;" vertex="1" parent="CRPxXDfZVk1PPz2hXP0v-26">
          <mxGeometry x="80" width="70" height="30" as="geometry" />
        </mxCell>
        <mxCell id="CRPxXDfZVk1PPz2hXP0v-5" value="Scheduled Service" style="ellipse;whiteSpace=wrap;html=1;aspect=fixed;" vertex="1" parent="CRPxXDfZVk1PPz2hXP0v-26">
          <mxGeometry x="30" y="80" width="80" height="80" as="geometry" />
        </mxCell>
        <mxCell id="CRPxXDfZVk1PPz2hXP0v-18" value="Java-Spring" style="text;html=1;strokeColor=none;fillColor=none;align=center;verticalAlign=middle;whiteSpace=wrap;rounded=0;" vertex="1" parent="CRPxXDfZVk1PPz2hXP0v-26">
          <mxGeometry x="48" y="47" width="70" height="30" as="geometry" />
        </mxCell>
        <mxCell id="CRPxXDfZVk1PPz2hXP0v-7" value="Employee Data Query" style="html=1;verticalAlign=bottom;startArrow=oval;startFill=1;endArrow=block;startSize=8;curved=0;rounded=0;exitX=1;exitY=0.5;exitDx=0;exitDy=0;entryX=0;entryY=0.5;entryDx=0;entryDy=0;entryPerimeter=0;" edge="1" parent="1" source="CRPxXDfZVk1PPz2hXP0v-5" target="CRPxXDfZVk1PPz2hXP0v-6">
          <mxGeometry x="0.0416" y="-1" width="60" relative="1" as="geometry">
            <mxPoint x="938" y="380" as="sourcePoint" />
            <mxPoint x="998" y="380" as="targetPoint" />
            <mxPoint as="offset" />
          </mxGeometry>
        </mxCell>
        <mxCell id="CRPxXDfZVk1PPz2hXP0v-16" value="Send Employee Data" style="html=1;verticalAlign=bottom;startArrow=oval;startFill=1;endArrow=block;startSize=8;curved=0;rounded=0;exitX=0;exitY=0.5;exitDx=0;exitDy=0;entryX=1;entryY=0.5;entryDx=0;entryDy=0;" edge="1" parent="1" source="CRPxXDfZVk1PPz2hXP0v-5" target="CRPxXDfZVk1PPz2hXP0v-10">
          <mxGeometry x="-0.1479" y="-1" width="60" relative="1" as="geometry">
            <mxPoint x="469" y="379.66" as="sourcePoint" />
            <mxPoint x="529" y="379.66" as="targetPoint" />
            <mxPoint as="offset" />
          </mxGeometry>
        </mxCell>
        <mxCell id="CRPxXDfZVk1PPz2hXP0v-28" value="User" style="shape=umlActor;verticalLabelPosition=bottom;verticalAlign=top;html=1;outlineConnect=0;" vertex="1" parent="1">
          <mxGeometry x="50" y="350" width="30" height="60" as="geometry" />
        </mxCell>
        <mxCell id="CRPxXDfZVk1PPz2hXP0v-31" value="1" style="rounded=0;orthogonalLoop=1;jettySize=auto;html=1;elbow=vertical;entryX=0;entryY=0.5;entryDx=0;entryDy=0;" edge="1" parent="1" source="CRPxXDfZVk1PPz2hXP0v-28" target="CRPxXDfZVk1PPz2hXP0v-11">
          <mxGeometry relative="1" as="geometry">
            <mxPoint x="370" y="336.74111513584944" as="sourcePoint" />
            <mxPoint x="697" y="309.74111513584944" as="targetPoint" />
          </mxGeometry>
        </mxCell>
      </root>
    </mxGraphModel>
  </diagram>
</mxfile>
